<?xml version="1.0" encoding="UTF-8"?>
<!DOCTYPE svg PUBLIC "-//W3C//DTD SVG 1.1//EN" "http://www.w3.org/Graphics/SVG/1.1/DTD/svg11.dtd">
<!-- Creator: CorelDRAW -->
<svg xmlns="http://www.w3.org/2000/svg" xml:space="preserve" width="210mm" height="297mm" version="1.1" style="shape-rendering:geometricPrecision; text-rendering:geometricPrecision; image-rendering:optimizeQuality; fill-rule:evenodd; clip-rule:evenodd"
viewBox="0 0 21000 29700"
 xmlns:xlink="http://www.w3.org/1999/xlink"
 xmlns:xodm="http://www.corel.com/coreldraw/odm/2003">
 <defs>
  <style type="text/css">
   <![CDATA[
    .fil0 {fill:#CA9F70}
   ]]>
  </style>
 </defs>
 <g id="Слой_x0020_1">
  <metadata id="CorelCorpID_0Corel-Layer"/>
  <path class="fil0" d="M21059.21 26844.4l0 -5237.8 -12456.3 0 1951.4 5237.8 10504.9 0zm-12456.3 -5237.8l-1951.39 0 0 -5230.69 -3464.14 -9290.34 -1968.26 0 0 10503.97 0 78.07 0 70.97 0 78.07 0 70.98c0,262.6 33.74,177.43 236.19,383.25l320.54 305.18c28.12,28.39 44.99,49.68 78.73,78.07 33.75,35.49 50.62,42.59 89.98,78.07l2226.95 2093.7c28.12,28.39 50.61,42.59 78.73,70.97l241.82 227.12c106.84,113.55 208.07,198.72 320.54,305.18l393.65 383.25c185.58,163.24 376.79,397.45 556.74,532.3l2435.02 2342.1c39.37,35.49 56.24,42.59 95.61,78.07 157.46,134.85 298.05,305.19 449.88,454.23l1192.21 1128.47c84.35,70.97 151.84,163.23 241.82,234.21 84.35,63.87 151.83,141.94 230.56,220.01 44.99,49.68 33.74,42.59 123.72,42.59l22.5 0 -1951.4 -5237.8zm-1951.39 -5230.69l0 -9276.15c2378.79,0 4802.56,35.49 7186.97,35.49l7007.02 -7.1c95.6,0 140.59,14.19 213.7,21.29l0 -5344.25 -9554.51 0c-16.87,63.88 -73.11,85.17 -112.48,134.85l-230.56 255.5c-50.62,42.58 -67.49,70.97 -118.1,120.65l-174.33 191.63c-22.5,28.39 -22.5,35.49 -50.61,70.97 -118.1,120.66 -247.44,234.21 -354.29,369.06l-1979.51 2150.48c-112.47,134.85 -230.57,248.4 -354.29,376.15l-359.91 397.45c0,0 -5.62,7.1 -5.62,7.1l-1034.75 1121.37c-56.23,56.78 -56.23,85.17 -157.46,85.17l-1456.51 0 -1928.9 0 3464.14 9290.34z"/>
 </g>
</svg>
