<?xml version="1.0" encoding="UTF-8"?>
<!DOCTYPE svg PUBLIC "-//W3C//DTD SVG 1.1//EN" "http://www.w3.org/Graphics/SVG/1.1/DTD/svg11.dtd">
<!-- Creator: CorelDRAW -->
<svg xmlns="http://www.w3.org/2000/svg" xml:space="preserve" width="120mm" height="100mm" version="1.1" style="shape-rendering:geometricPrecision; text-rendering:geometricPrecision; image-rendering:optimizeQuality; fill-rule:evenodd; clip-rule:evenodd"
viewBox="0 0 12000 10000"
 xmlns:xlink="http://www.w3.org/1999/xlink"
 xmlns:xodm="http://www.corel.com/coreldraw/odm/2003">
 <defs>
  <style type="text/css">
   <![CDATA[
    .fil0 {fill:#C8A167}
   ]]>
  </style>
 </defs>
 <g id="Слой_x0020_1">
  <metadata id="CorelCorpID_0Corel-Layer"/>
  <path class="fil0" d="M12151.09 9521.84l0 -2873.61 -9150.26 0 0 -6708.71 -2967.65 0 0 4734.12 0 81.49 0 252.59c3.43,73.34 27.48,62.47 72.13,100.5l305.69 285.18c10.31,10.87 6.87,8.15 17.18,19.02 137.39,152.1 528.96,488.89 721.3,684.45l267.92 241.73c54.95,57.04 113.34,119.51 171.74,173.83 34.34,29.88 51.52,38.02 85.86,73.33l429.35 415.56c13.74,10.87 6.87,2.72 20.61,13.58l133.96 133.09c0,2.72 3.43,5.43 3.43,5.43l13.74 10.87c0,2.71 3.44,5.43 6.87,5.43l1119.74 1072.85c30.91,32.59 54.96,54.32 85.87,86.92l697.26 665.43c72.13,54.33 250.74,241.74 336.61,323.22 0,2.71 3.43,5.43 6.87,5.43 0,2.72 3.43,5.43 3.43,5.43 161.44,143.95 154.57,184.7 223.26,192.84l133.96 0 54.96 0 68.69 0 109.92 0 113.34 0 109.92 0 113.35 0 109.91 0 113.35 0 109.91 0 113.35 0 109.91 0 109.91 0 113.35 0 109.91 0 113.35 0 109.91 0 113.35 0 109.92 0 113.34 0 109.92 0 113.34 0 109.92 0 109.91 0 113.35 0 109.91 0 113.35 0 109.91 0 113.35 0 109.91 0 113.35 0 109.91 0 113.35 0 109.91 0 113.35 0 109.92 0 113.34 0 109.92 0 113.34 0 109.92 0 109.91 0 113.35 0 109.91 0 113.35 0 109.91 0 113.35 0 109.91 0 113.35 0 109.91 0 113.35 0 109.91 0 113.35 0 109.92 0 113.34 0 109.92 0 113.34 0 109.92 0 113.35 0 109.91 0 113.35 0 109.91 0 113.35 0 109.91 0 113.35 0 109.91 0 113.35 0 109.91 0z"/>
 </g>
</svg>
