<?xml version="1.0" encoding="UTF-8"?>
<!DOCTYPE svg PUBLIC "-//W3C//DTD SVG 1.1//EN" "http://www.w3.org/Graphics/SVG/1.1/DTD/svg11.dtd">
<!-- Creator: CorelDRAW -->
<svg xmlns="http://www.w3.org/2000/svg" xml:space="preserve" width="90mm" height="20mm" version="1.1" style="shape-rendering:geometricPrecision; text-rendering:geometricPrecision; image-rendering:optimizeQuality; fill-rule:evenodd; clip-rule:evenodd"
viewBox="0 0 9000 2000"
 xmlns:xlink="http://www.w3.org/1999/xlink"
 xmlns:xodm="http://www.corel.com/coreldraw/odm/2003">
 <defs>
  <style type="text/css">
   <![CDATA[
    .fil0 {fill:#CA9F70}
   ]]>
  </style>
 </defs>
 <g id="Слой_x0020_1">
  <metadata id="CorelCorpID_0Corel-Layer"/>
  <g id="_2887033894544">
   <path class="fil0" d="M431.23 474.79l-380.49 0 0 794.89 0 3.17c7.55,34.28 128.51,127.64 166.3,168.26l262.07 253.71c20.16,20.04 25.2,22.15 47.88,39.03 68.03,54.86 176.38,204.13 234.34,204.13l745.87 0 0 -397.71 -1058.33 0 0 -1057.04 75.6 0 -45.36 -40.09c-17.64,17.94 -35.28,31.65 -47.88,31.65zm93.24 8.44l796.26 0c27.72,0 171.35,-175.12 191.51,-196.75 17.64,-16.88 32.76,-29.53 47.88,-46.41l141.11 -162.99 -25.2 0 -27.72 0 -25.19 0 -25.2 0 -27.72 0 -25.2 0 -25.2 0 -544.28 0 -25.2 0 -27.72 0 -100.79 0 -27.72 22.68 -254.51 271.12 -60.47 72.26 45.36 40.09z"/>
   <path class="fil0" d="M6307.5 982.21l-168.83 0 0 -262.15c183.95,0 398.13,-37.98 398.13,126.59 0,54.86 -27.71,92.84 -65.51,113.41 -32.76,17.93 -113.39,22.15 -163.79,22.15zm-372.94 498.99l204.11 0 0 -346.55c257.02,0 186.47,-42.72 314.98,167.21 17.64,31.65 32.76,58.02 52.92,89.67 20.16,31.12 37.79,58.55 55.43,89.67l219.23 0c-35.28,-66.99 -80.64,-125.54 -120.95,-192 -40.32,-68.57 -88.2,-128.7 -123.48,-197.27 85.68,-6.86 194.03,-111.83 194.03,-236.84 0,-92.83 -10.08,-155.6 -90.71,-221.01 -47.88,-36.92 -123.47,-66.46 -206.63,-66.46l-498.93 0 0 913.58z"/>
   <path class="fil0" d="M4183.27 1481.2l176.39 0 0 -600.79 0 -13.19 -176.39 -32.17 0 646.15zm176.39 -613.98l-7.56 -62.76 40.32 68.57 211.67 39.03 -176.39 -311.21c-27.72,-54.85 -47.88,-33.23 -244.43,-33.23l0 267.43 176.39 32.17zm32.76 5.81l257.02 447.29c113.4,199.38 35.28,160.88 320.02,160.88l0 -502.15 -176.38 -32.18 0 238.42c0,29.01 5.03,32.7 7.55,59.07 -17.63,-13.18 -40.31,-57.49 -52.91,-81.75l-143.63 -250.55 -211.67 -39.03zm577.04 106.02l0 -411.43 -176.38 0 0 379.25 176.38 32.18z"/>
   <polygon class="fil0" points="3311.41,1481.2 4054.76,1481.2 4054.76,1320.32 3505.44,1320.32 3505.44,1091.93 3986.73,1091.93 3986.73,940.02 3505.44,940.02 3505.44,720.06 4029.56,720.06 4029.56,567.62 3311.41,567.62 "/>
   <path class="fil0" d="M7239.84 1091.93c0,119.73 15.12,216.26 93.23,294.32 151.19,149.27 483.81,130.81 614.85,-8.44 70.55,-74.9 95.75,-184.08 95.75,-328.08l0 -482.11 -204.11 0 0 567.03c0,102.33 -68.03,194.11 -168.83,194.11 -103.31,0 -229.3,-5.28 -229.3,-185.67l0 -575.47 -201.59 0 0 524.31z"/>
   <path class="fil0" d="M8194.86 779.14c0,72.79 -5.04,114.46 42.84,176.7 22.68,26.9 55.43,52.75 85.67,68.04 151.19,78.59 393.1,53.8 425.85,176.18 37.8,136.61 -141.11,137.14 -224.26,137.14 -103.31,0 -166.31,-50.11 -186.47,-135.03l-176.39 33.23c-22.68,22.15 35.28,114.98 55.44,138.19 188.99,192.53 705.55,146.11 723.19,-116.57l0 -12.66 0 -7.91 0 -7.91 0 -7.39 0 -7.91 0 -7.38 0 -7.39 0 -7.38 0 -7.39c-2.52,-57.49 -20.16,-109.71 -78.11,-158.24 -143.63,-121.31 -481.29,-75.95 -481.29,-229.44 0,-30.6 22.68,-65.94 47.88,-79.65 45.35,-24.26 262.06,-66.46 299.86,96.53 62.99,-5.28 128.51,-25.32 194.02,-25.32 -42.83,-92.84 -40.31,-236.84 -355.29,-236.84 -156.23,0 -372.94,49.06 -372.94,228.4z"/>
   <path class="fil0" d="M2328.67 982.21l0 67.52c0,259.51 178.91,439.91 440.97,439.91 113.4,0 199.07,-17.94 284.75,-78.07 50.39,-35.87 120.95,-126.06 138.59,-192.53l-171.35 -59.07c-27.72,54.86 -27.72,67.51 -73.08,112.35 -105.83,101.27 -425.85,107.6 -425.85,-247.91 0,-147.69 60.48,-312.79 219.23,-312.79 110.87,0 234.34,16.35 264.58,143.47 57.95,-4.74 115.91,-36.92 176.39,-42.19 -17.64,-40.09 -25.2,-70.16 -52.92,-107.61 -27.72,-39.03 -42.84,-51.16 -80.63,-80.7 -153.71,-125.54 -720.68,-142.42 -720.68,357.62z"/>
   <polygon class="fil0" points="5062.7,720.06 5349.96,720.06 5349.96,1481.2 5554.07,1481.2 5554.07,720.06 5841.33,720.06 5841.33,567.62 5062.7,567.62 "/>
   <polygon class="fil0" points="6884.54,1481.2 7086.13,1481.2 7086.13,567.62 6884.54,567.62 "/>
  </g>
 </g>
</svg>
